<svg id="Capa_1" enable-background="new 0 0 512 512" height="512" viewBox="0 0 512 512" width="512" xmlns="http://www.w3.org/2000/svg"><g><g><path d="m335.355 161.576h-228.512c-4.142 0-7.5 3.357-7.5 7.5s3.358 7.5 7.5 7.5h228.512c4.142 0 7.5-3.357 7.5-7.5s-3.358-7.5-7.5-7.5z"/><path d="m342.855 221.521c0-4.143-3.358-7.5-7.5-7.5h-228.512c-4.142 0-7.5 3.357-7.5 7.5s3.358 7.5 7.5 7.5h228.512c4.142 0 7.5-3.357 7.5-7.5z"/><path d="m228.599 273.966c0-4.143-3.358-7.5-7.5-7.5h-114.256c-4.142 0-7.5 3.357-7.5 7.5s3.358 7.5 7.5 7.5h114.256c4.142 0 7.5-3.358 7.5-7.5z"/><path d="m176.922 423.562c-3.598-2.555-8.525-6.055-17.491-6.055s-13.894 3.5-17.491 6.055c-2.883 2.048-4.623 3.284-8.805 3.284-4.18 0-5.92-1.236-8.802-3.283-3.597-2.556-8.524-6.056-17.49-6.056-4.142 0-7.5 3.357-7.5 7.5s3.358 7.5 7.5 7.5c4.18 0 5.92 1.236 8.802 3.283 3.597 2.556 8.524 6.056 17.49 6.056s13.894-3.5 17.491-6.055c2.883-2.048 4.623-3.284 8.805-3.284s5.922 1.236 8.805 3.284c3.598 2.555 8.525 6.055 17.491 6.055 4.142 0 7.5-3.357 7.5-7.5s-3.358-7.5-7.5-7.5c-4.182 0-5.922-1.237-8.805-3.284z"/><path d="m27.274 259.6c4.142 0 7.5-3.357 7.5-7.5v-128.219c0-.817.079-1.62.195-2.414l81.507.001c13.656 0 24.766-11.11 24.766-24.767v-81.506c.794-.116 1.597-.195 2.414-.195h254.002c5.385 0 9.766 4.381 9.766 9.766v35.119c0 4.143 3.358 7.5 7.5 7.5s7.5-3.357 7.5-7.5v-35.119c-.001-13.657-11.11-24.766-24.767-24.766h-254.002c-8.397 0-16.291 3.27-22.228 9.207l-92.446 92.446c-5.938 5.938-9.208 13.831-9.208 22.228v128.219c.001 4.142 3.359 7.5 7.501 7.5zm98.967-233.993v71.094c0 5.386-4.381 9.767-9.766 9.767l-71.094-.001z"/><path d="m488.342 356.598c6.057-9.279 4.938-21.353-2.72-29.359-1.994-2.084-2.827-5.013-2.229-7.834 2.295-10.84-3.109-21.693-13.144-26.396-2.611-1.223-4.446-3.652-4.908-6.498-1.775-10.938-10.736-19.107-21.79-19.865-2.877-.197-5.466-1.8-6.925-4.286-3.241-5.527-8.393-9.309-14.204-10.893v-156.562c0-4.143-3.358-7.5-7.5-7.5s-7.5 3.357-7.5 7.5v157.135c-2.237.227-4.5-.404-6.297-1.83v.001c-8.682-6.888-20.806-6.887-29.485-.001-2.259 1.793-5.252 2.353-8.006 1.497-10.579-3.29-21.888 1.094-27.495 10.651-1.458 2.487-4.047 4.09-6.924 4.287-11.055.758-20.015 8.927-21.79 19.864-.462 2.847-2.297 5.276-4.91 6.5-10.034 4.701-15.438 15.556-13.142 26.395.598 2.821-.236 5.75-2.229 7.833-7.659 8.008-8.778 20.081-2.721 29.36 1.576 2.415 1.857 5.446.751 8.109-4.249 10.234-.931 21.896 8.068 28.359 2.342 1.684 3.7 4.409 3.631 7.291-.265 11.077 7.042 20.753 17.77 23.531 1.926.499 3.583 1.64 4.753 3.186l-19.913 48.074c-1.91 4.608-1.011 9.764 2.345 13.454 3.355 3.69 8.402 5.073 13.17 3.61l21.081-6.469 5.97 11.256h-293.666c-7.504 0-13.609-6.105-13.609-13.609v-196.205c0-4.143-3.358-7.5-7.5-7.5s-7.5 3.357-7.5 7.5v196.207c0 15.775 12.834 28.609 28.609 28.609h366.54c.02 0 .04-.003.06-.003.044 0 .088.003.131.003 4.734 0 9-2.555 11.239-6.775l10.331-19.48 21.08 6.469c4.767 1.463 9.815.081 13.171-3.609s4.255-8.846 2.346-13.454l-19.914-48.075c1.17-1.545 2.827-2.687 4.755-3.186 10.727-2.778 18.033-12.454 17.769-23.531-.069-2.882 1.288-5.607 3.629-7.29 9-6.463 12.318-18.125 8.07-28.36-1.105-2.665-.824-5.696.752-8.111zm-139.88 120.474c-2.859-5.392-9.167-8.005-15.001-6.214l-18.287 5.611 14.655-35.38c4.547 3.031 10.123 4.487 15.904 3.807 2.867-.332 5.704.766 7.594 2.942 5.105 5.876 12.506 8.708 19.855 8.088l-15.758 38.043zm23.944 19.928 13.978-33.745 13.978 33.745zm85.187-20.53-18.287-5.611c-5.833-1.79-12.142.822-15.001 6.214l-8.962 16.899-15.756-38.038c.66.056 1.319.094 1.978.094 6.679-.001 13.228-2.84 17.875-8.188 1.891-2.177 4.727-3.273 7.595-2.941 5.781.677 11.357-.779 15.903-3.808zm18.189-128.072c-4.288 6.568-5.052 14.815-2.044 22.061 1.562 3.762.342 8.049-2.968 10.426-6.371 4.578-10.062 11.991-9.874 19.832.098 4.072-2.589 7.629-6.532 8.65-7.458 1.93-13.488 7.351-16.219 14.537-.006.015-.015.029-.021.044-.042.104-.092.234-.128.335-.001.003-.003.007-.004.01-1.38 3.832-5.173 6.179-9.216 5.706-7.795-.905-15.516 2.081-20.659 8.003-2.672 3.074-7.054 3.893-10.654 1.992-3.306-1.746-6.916-2.65-10.542-2.732-.012 0-.024-.001-.036-.001-.167-.004-.334-.015-.5-.015-.155 0-.31.011-.466.014-.056 0-.111.004-.167.005-3.593.096-7.169.999-10.445 2.729-3.602 1.9-7.983 1.082-10.655-1.991-5.144-5.923-12.868-8.917-20.658-8.004-4.043.474-7.836-1.874-9.217-5.707-.009-.024-.019-.047-.028-.071-.035-.094-.069-.187-.107-.281-.006-.014-.014-.027-.02-.041-2.732-7.183-8.761-12.603-16.216-14.532-3.944-1.021-6.63-4.578-6.533-8.651.187-7.841-3.504-15.254-9.876-19.832-3.308-2.376-4.528-6.663-2.965-10.426 3.007-7.245 2.243-15.491-2.045-22.06-2.227-3.411-1.815-7.849 1-10.793 5.421-5.67 7.688-13.636 6.063-21.309-.844-3.985 1.143-7.976 4.831-9.704 7.103-3.327 12.094-9.937 13.352-17.68.652-4.021 3.946-7.024 8.011-7.303 7.826-.537 14.867-4.897 18.836-11.662 2.061-3.515 6.216-5.126 10.107-3.917 7.49 2.327 15.632.806 21.777-4.069 3.192-2.533 7.649-2.532 10.84-.001v.001c6.146 4.875 14.286 6.398 21.777 4.069.616-.191 1.238-.304 1.858-.358.124-.008.248-.016.371-.031 3.164-.139 6.209 1.458 7.879 4.306 3.969 6.765 11.01 11.125 18.836 11.662 4.064.278 7.358 3.282 8.011 7.304 1.257 7.743 6.248 14.352 13.35 17.678 3.689 1.729 5.677 5.72 4.833 9.704-1.626 7.674.641 15.641 6.063 21.31 2.815 2.944 3.226 7.382 1 10.793z"/><path d="m386.384 286.839c-35.538 0-64.449 28.912-64.449 64.449s28.912 64.449 64.449 64.449 64.449-28.912 64.449-64.449-28.911-64.449-64.449-64.449zm0 113.898c-27.267 0-49.449-22.183-49.449-49.449s22.183-49.449 49.449-49.449 49.449 22.183 49.449 49.449-22.182 49.449-49.449 49.449z"/></g></g></svg>