<svg id="Capa_1" enable-background="new 0 0 512 512" height="512" viewBox="0 0 512 512" width="512" xmlns="http://www.w3.org/2000/svg"><g><g><path d="m369.43 248.543h-196.232c-4.143 0-7.503 3.359-7.503 7.503s3.359 7.503 7.503 7.503h196.232c4.143 0 7.503-3.359 7.503-7.503-.001-4.144-3.36-7.503-7.503-7.503z"/><path d="m376.932 292.02c0-4.144-3.359-7.503-7.503-7.503h-196.231c-4.143 0-7.503 3.359-7.503 7.503s3.359 7.503 7.503 7.503h196.232c4.143-.001 7.502-3.359 7.502-7.503z"/><path d="m239.625 399.92c-4.143 0-7.503 3.359-7.503 7.503s3.359 7.503 7.503 7.503h63.378c4.143 0 7.503-3.359 7.503-7.503s-3.359-7.503-7.503-7.503z"/><path d="m205.814 181.028c3.51 1.281 5.865 4.514 6 8.239.567 15.666 15.69 26.626 30.765 22.331 3.599-1.026 7.415.211 9.722 3.15 9.666 12.321 28.345 12.34 38.026 0 2.305-2.94 6.122-4.176 9.721-3.15 15.109 4.3 30.2-6.693 30.766-22.331.135-3.725 2.49-6.959 6-8.239 14.739-5.376 20.516-23.135 11.754-36.136-2.083-3.091-2.083-7.086 0-10.176 8.768-13.013 2.975-30.765-11.753-36.137-3.51-1.281-5.866-4.514-6.001-8.239-.566-15.638-15.657-26.631-30.765-22.331-3.6 1.025-7.416-.21-9.721-3.15-9.665-12.321-28.345-12.34-38.025 0-2.306 2.939-6.125 4.174-9.721 3.15-15.107-4.301-30.2 6.693-30.766 22.331-.135 3.725-2.491 6.958-6.001 8.239-14.739 5.376-20.515 23.134-11.753 36.136 2.083 3.091 2.083 7.086 0 10.176-8.769 13.01-2.978 30.764 11.752 36.137zm.69-54.698c-3.312-4.914-1.127-11.62 4.451-13.655 9.274-3.383 15.497-11.938 15.854-21.792.215-5.923 5.938-10.069 11.658-8.443 9.486 2.701 19.552-.562 25.639-8.32 3.662-4.667 10.747-4.674 14.414 0 6.087 7.759 16.151 11.023 25.64 8.32 5.718-1.629 11.443 2.524 11.658 8.443.357 9.855 6.58 18.409 15.854 21.792 5.57 2.032 7.768 8.734 4.451 13.656-5.514 8.184-5.514 18.76.001 26.946 3.311 4.914 1.125 11.62-4.452 13.655-9.274 3.382-15.497 11.936-15.854 21.792-.214 5.913-5.931 10.072-11.658 8.443-9.488-2.707-19.554.562-25.639 8.32-3.662 4.667-10.747 4.674-14.414 0-6.077-7.746-16.13-11.028-25.639-8.32-5.734 1.629-11.444-2.536-11.658-8.443-.357-9.857-6.58-18.41-15.854-21.792-5.567-2.032-7.768-8.733-4.45-13.656 5.513-8.185 5.513-18.761-.002-26.946z"/><path d="m271.314 183.959c24.381 0 44.216-19.808 44.216-44.156s-19.835-44.157-44.216-44.157-44.216 19.809-44.216 44.157 19.835 44.156 44.216 44.156zm0-73.309c16.107 0 29.211 13.078 29.211 29.152s-13.104 29.151-29.211 29.151c-16.106 0-29.21-13.078-29.21-29.151-.001-16.074 13.103-29.152 29.21-29.152z"/><path d="m434.864 129.767c4.143 0 7.503-3.359 7.503-7.503v-96.51c-.001-14.201-11.554-25.754-25.754-25.754h-321.226c-14.2 0-25.753 11.553-25.753 25.754v419.029c0 14.201 11.553 25.754 25.754 25.754h21.384v30.342c0 4.051 2.205 7.783 5.755 9.739 3.553 1.958 7.89 1.828 11.319-.339l12.802-8.09c1.329-.839 3.046-.839 4.376 0l12.802 8.091c3.422 2.162 7.76 2.299 11.319.338 3.55-1.956 5.754-5.687 5.754-9.739v-30.342h235.714c14.201 0 25.754-11.553 25.754-25.754v-287.443c0-4.144-3.359-7.503-7.503-7.503-4.143 0-7.503 3.359-7.503 7.503v287.443c0 5.927-4.822 10.749-10.749 10.749h-284.835v-59.156c0-4.144-3.359-7.503-7.503-7.503s-7.503 3.359-7.503 7.503v59.156h-21.384c-5.927 0-10.749-4.822-10.749-10.749v-419.029c0-5.927 4.822-10.749 10.749-10.749h21.384v346.296c0 4.144 3.359 7.503 7.503 7.503s7.503-3.359 7.503-7.503v-346.296h284.836c5.927 0 10.749 4.822 10.749 10.749v96.511c-.001 4.144 3.358 7.502 7.502 7.502zm-303.087 340.77h34.116v23.299l-6.853-4.331c-6.199-3.918-14.209-3.917-20.409 0l-6.854 4.332z"/></g></g></svg>